# xmcd
#
# Track frame offsets:
#	150
#	14426
#	27701
#	36697
#	49971
#	59878
#	71387
#	82309
#	94791
#	107152
#	118993
#	129745
#	141076
#	151555
#	163718
#	178026
#
# Disc length: 2484 seconds
#
# Revision: 0
# Processed by: cddbd v1.5.2PL0 Copyright (c) Steve Scherf et al.
# Submitted via: audiograbber 1.83.01
#
DISCID=f309b210
DTITLE=Various Artist - A Journey To Tyme Vol. 2
DYEAR=1900
DGENRE=Rock
TTITLE0=Faine Jane - It aint true
TTITLE1=Canterbury Fair - Song on a may morning
TTITLE2=The Cryan Shames - Ben Franklyns almanac
TTITLE3=Haymarket Riot - Nine o'clock
TTITLE4=The 4 Of Us - I feel a whole lot better
TTITLE5=Thee Midniters - Never knew I had it so bad
TTITLE6=The New Breed - High society girl
TTITLE7=The Roosters - One of these days
TTITLE8=The Fifth Order - Goin too far
TTITLE9=Fe-Fi- Four Plus 2 - Mr. Sweet stuff
TTITLE10=The Rats - Got to see my baby every day
TTITLE11=The Esquires - Sadies way
TTITLE12=The Poets - Now were through
TTITLE13=The Hallmarks - Soul shakin psychedellic sally
TTITLE14=The Outcasts - I didnt have to love her anymore
TTITLE15=The Rationals - Feelin lost
EXTD=
EXTT0=
EXTT1=
EXTT2=
EXTT3=
EXTT4=
EXTT5=
EXTT6=
EXTT7=
EXTT8=
EXTT9=
EXTT10=
EXTT11=
EXTT12=
EXTT13=
EXTT14=
EXTT15=
PLAYORDER=
